<?xml version="1.0" encoding="UTF-8"?>
<svg xmlns="http://www.w3.org/2000/svg" viewBox="0 0 1024 1024">
  <defs>
    <linearGradient id="sheen" x1="0" y1="0" x2="1" y2="1">
      <stop offset="50%" stop-color="#0e4d4b" stop-opacity="0"/>
      <stop offset="100%" stop-color="#25b5ab" stop-opacity="0.5"/>
    </linearGradient>
    <clipPath id="mask">
      <rect width="1024" height="1024" rx="296" ry="296"/>
    </clipPath>
  </defs>
  <g clip-path="url(#mask)">
    <rect width="1024" height="1024" fill="#0e4d4b"/>
    <rect width="1024" height="1024" fill="url(#sheen)"/>
    <g transform="translate(262 248) scale(0.7)" fill="#faf6ef">
      <path d="M302.92,385.17c-59.39,64.71-80.55,152.68-55.85,235.94,12.29,41.83,31.84,78.5,62.64,109.34.57,3.4-.14,9.68-2.21,11.23s-6.64.27-9.65-1.38c-92.41-50.8-141.77-152.22-122.24-256.31,19.8-105.56,90.4-174.34,174.44-235.73,65.93-48.17,129.33-96.36,191.86-148.93l101.79-85.59c14.59-12.27,32.74-18.42,51.43-9.49,11.55,5.52,20.5,18.18,20.5,32.92l-.02,560.21c-34.76,5.32-70.05-60.56-70.17-97.93l-1.23-391.03-98.58,81.54-162.4,124.9c-28.94,22-55.16,42.91-80.32,70.32Z"/>
      <path d="M71.58,108.5l-.57,385.02c-.06,37.85-17.49,71.65-43.29,96.36-8.96,6.1-15.98,12.04-27.64,9.95L0,39.34C0,25.19,5.39,13.46,16.55,6.5,34.98-4.99,55.08-.17,70.82,12.99l133.51,111.6,119.73,92.86-60.39,45.34c-66.07-49.07-126.56-100.04-192.09-154.28Z"/>
      <path d="M273.47,566.77c-7.72,0-11.17-9.43-11.13-14.04.04-5.44,4.64-15.05,12-15.07l203.08-.3c-1.66-27.77-6.37-51.8-14.17-76.96l-155.39-.21c-7.43-.01-10.84-11.09-9.93-16.56.98-5.85,6.68-13.11,14.11-13.12l136.69-.07c-14.12-28.33-33.47-52.4-57.91-74.78l57.45-42.69c47.6,47.59,80.95,106.98,91.92,173.58,14.51,86.09-16.73,171.91-84.88,226.12-26.15,20.8-56.35,35.54-89.46,42-5.38,1.05-5.97-12.44-1.88-15.36,58.03-41.26,103.74-99.1,111.33-172.43l-201.84-.11Z"/>
      <rect x="120.62" y="72.01" width="474.57" height="30.7" rx="15.35" ry="15.35"/>
      <rect x="223.05" y="152.58" width="266.15" height="30.7" rx="15.35" ry="15.35"/>
      <rect x="295.67" y="643.76" width="120.92" height="30.7" rx="15.35" ry="15.35"/>
    </g>
  </g>
</svg>
